<svg xmlns="http://www.w3.org/2000/svg" width="0" height="0">
<symbol viewBox="0 0 8 8" id="ad"><path d="M0,7L0,1L8,1L8,7" fill="#f0f000"></path><path d="M0,7L0,1L2.5,1L2.5,7" fill="#0000c0"></path><path d="M5.5,7L5.5,1L8,1L8,7" fill="#ff0000"></path><path d="M3,5L3,3L5,3L5,5" fill="#c0c0c0"></path></symbol>
<symbol viewBox="0 0 8 8" id="ae"><path d="M2,3L2,1L8,1L8,3" fill="#008000"></path><path d="M2,5L2,3L8,3L8,5" fill="#ffffff"></path><path d="M2,7L2,5L8,5L8,7" fill="#000000"></path><path d="M0,7L0,1L2,1L2,7" fill="#ff0000"></path></symbol>
<symbol viewBox="0 0 8 8" id="af"><path d="M0,7L0,1L8,1L8,7" fill="#ff0000"></path><path d="M0,7L0,1L2.5,1L2.5,7" fill="#000000"></path><path d="M5.5,7L5.5,1L8,1L8,7" fill="#008000"></path></symbol>
<symbol viewBox="0 0 8 8" id="ag"><path d="M0,4L0,1L8,1L8,4" fill="#000000"></path><path d="M0,5L0,4L8,4L8,5" fill="#0000c0"></path><path d="M0,7L0,5L8,5L8,7" fill="#ffffff"></path><path d="M0,7L0,1L4,7L8,1L8,7" fill="#ff0000"></path><path d="M3,4C2,2,6,2,5,4" fill="#f0f000"></path></symbol>
<symbol viewBox="0 0 8 8" id="al"><path d="M0,7L0,1L8,1L8,7" fill="#ff0000"></path><path d="M6,5L4,6L2,5L2,2L4,3L6,2" fill="#000000"></path></symbol>
<symbol viewBox="0 0 8 8" id="am"><path d="M0,3L0,1L8,1L8,3" fill="#ff0000"></path><path d="M0,5L0,3L8,3L8,5" fill="#0000c0"></path><path d="M0,7L0,5L8,5L8,7" fill="#ff8000"></path></symbol>
<symbol viewBox="0 0 8 8" id="ao"><path d="M0,4L0,1L8,1L8,4" fill="#ff0000"></path><path d="M0,7L0,4L8,4L8,7" fill="#000000"></path></symbol>
<symbol viewBox="0 0 8 8" id="ar"><path d="M0,7L0,1L8,1L8,7" fill="#0080ff"></path><path d="M0,5L0,3L8,3L8,5" fill="#ffffff"></path><path d="M4,5C2,5,2,3,4,3C6,3,6,5,4,5" fill="#f0f000"></path></symbol>
<symbol viewBox="0 0 8 8" id="at"><path d="M0,7L0,1L8,1L8,7" fill="#ff0000"></path><path d="M0,5L0,3L8,3L8,5" fill="#ffffff"></path></symbol>
<symbol viewBox="0 0 8 8" id="az"><path d="M0,7L0,1L8,1L8,7" fill="#0080ff"></path><path d="M0,5L0,3L8,3L8,5" fill="#ff0000"></path><path d="M0,7L0,5L8,5L8,7" fill="#008000"></path><path d="M6,4L5,4L5,3Q3,4,5,5Q1,4,5,3" fill="#ffffff"></path></symbol>
<symbol viewBox="0 0 8 8" id="ba"><path d="M0,6L0,2L8,2L8,6" fill="#0000c0"></path><path d="M2,2L6,2L6,6" fill="#f0f000"></path></symbol>
<symbol viewBox="0 0 8 8" id="bb"><path d="M0,7L0,1L8,1L8,7" fill="#0000c0"></path><path d="M2.5,7L2.5,1L5.5,1L5.5,7" fill="#f0f000"></path></symbol>
<symbol viewBox="0 0 8 8" id="bd"><path d="M0,7L0,1L8,1L8,7" fill="#008000"></path><path d="M3,5.5C1,6,1,2,3,2.5C5,2,5,6,3,5.5" fill="#ff0000"></path></symbol>
<symbol viewBox="0 0 8 8" id="be"><path d="M0,7L0,1L8,1L8,7" fill="#f0f000"></path><path d="M0,7L0,1L2.5,1L2.5,7" fill="#000000"></path><path d="M5.5,7L5.5,1L8,1L8,7" fill="#ff0000"></path></symbol>
<symbol viewBox="0 0 8 8" id="bf"><path d="M0,4L0,1L8,1L8,4" fill="#ff0000"></path><path d="M0,7L0,4L8,4L8,7" fill="#008000"></path><path d="M2.5,6L4,2L5.5,6L2,3.5L6,3.5" fill="#f0f000"></path></symbol>
<symbol viewBox="0 0 8 8" id="bg"><path d="M0,7L0,1L8,1L8,7" fill="#ffffff"></path><path d="M0,5L0,3L8,3L8,5" fill="#008000"></path><path d="M0,7L0,5L8,5L8,7" fill="#ff0000"></path></symbol>
<symbol viewBox="0 0 8 8" id="bh"><path d="M2,7L2,1L8,1L8,7" fill="#ff0000"></path><path d="M0,7L0,1L2,1L4,2L2,3L4,4L2,5L4,6L2,7" fill="#ffffff"></path></symbol>
<symbol viewBox="0 0 8 8" id="bi"><path d="M0,7L0,1L8,1L8,7" fill="#ffffff"></path><path d="M5,3Q4,2,3,3L1,1L7,1M1,7L3,5Q4,6,5,5L7,7" fill="#ff0000"></path><path d="M0,7L0,1L2,3Q1,4,2,5M6,5Q7,4,6,3L8,1L8,7" fill="#008000"></path></symbol>
<symbol viewBox="0 0 8 8" id="bj"><path d="M3,4L3,1L8,1L8,4" fill="#f0f000"></path><path d="M0,7L0,1L3,1L3,7" fill="#008000"></path><path d="M3,7L3,4L8,4L8,7" fill="#ff0000"></path></symbol>
<symbol viewBox="0 0 8 8" id="bn"><path d="M0,7L0,1L8,1L8,7" fill="#f0f000"></path><path d="M0,3L0,2L8,6L8,7" fill="#000000"></path><path d="M0,2L0,1L8,5L8,6" fill="#ffffff"></path><path d="M4,5C2.5,5,2.5,3,4,3C5.5,3,5.5,5,4,5" fill="#ff0000"></path></symbol>
<symbol viewBox="0 0 8 8" id="bo"><path d="M0,5L0,3L8,3L8,5" fill="#f0f000"></path><path d="M0,3L0,1L8,1L8,3M4,5L3,4L4,3L5,4" fill="#ff0000"></path><path d="M0,7L0,5L8,5L8,7" fill="#008000"></path></symbol>
<symbol viewBox="0 0 8 8" id="br"><path d="M0,7L0,1L8,1L8,7" fill="#008000"></path><path d="M1,4L4,2L7,4L4,6" fill="#f0f000"></path><path d="M4,5C2.5,5,2.5,3,4,3C5.5,3,5.5,5,4,5" fill="#0000c0"></path></symbol>
<symbol viewBox="0 0 8 8" id="bs"><path d="M0,7L0,1L8,1L8,7" fill="#0080ff"></path><path d="M0,5L0,3L8,3L8,5" fill="#f0f000"></path><path d="M0,7L0,1L4,4" fill="#000000"></path></symbol>
<symbol viewBox="0 0 8 8" id="bt"><path d="M0,7L0,1L8,1" fill="#f0f000"></path><path d="M0,7L8,1L8,7" fill="#ff8000"></path><path d="M6,3C6,6,1,4,1,7C1,1,5,6,5,2L7,2" fill="#c0c0c0"></path></symbol>
<symbol viewBox="0 0 8 8" id="bw"><path d="M0,7L0,1L8,1L8,7" fill="#0080ff"></path><path d="M0,5L0,3L8,3L8,5" fill="#ffffff"></path><path d="M0,4.5L0,3.5L8,3.5L8,4.5" fill="#000000"></path></symbol>
<symbol viewBox="0 0 8 8" id="by"><path d="M1,5L1,1L8,1L8,5" fill="#ff0000"></path><path d="M1,7L1,5L8,5L8,7" fill="#008000"></path><path d="M0,7L0,1L1,1L1,7" fill="#ffffff"></path></symbol>
<symbol viewBox="0 0 8 8" id="bz"><path d="M0,7L0,1L8,1L8,7" fill="#ff0000"></path><path d="M0,6L0,2L8,2L8,6" fill="#0000c0"></path><path d="M4,6C1,6,1,2,4,2C7,2,7,6,4,6" fill="#ffffff"></path></symbol>
<symbol viewBox="0 0 8 8" id="ca"><path d="M0,7L0,1L8,1L8,7" fill="#ff0000"></path><path d="M2,7L2,1L6,1L6,7" fill="#ffffff"></path><path d="M3,5L3,3L4,2L5,3L5,5" fill="#ff0000"></path></symbol>
<symbol viewBox="0 0 8 8" id="cd"><path d="M0,7L0,1L8,1L8,7" fill="#0080ff"></path><path d="M1,7L0,7L0,5L7,1L8,1L8,3M2,1L1,3L3,1.5L1,1.5L2.5,3" fill="#f0f000"></path><path d="M0.5,7L0,7L0,5.5L7.5,1L8,1L8,2.5" fill="#ff0000"></path></symbol>
<symbol viewBox="0 0 8 8" id="cf"><path d="M0,3L0,1L8,1L8,3" fill="#0000c0"></path><path d="M0,4L0,2.5L8,2.5L8,4" fill="#ffffff"></path><path d="M0,6L0,4L8,4L8,6" fill="#008000"></path><path d="M0,7L0,5.5L8,5.5L8,7M1.5,1L2,2.5L0.5,1.5L2.5,1.5L1,2.5" fill="#f0f000"></path><path d="M3,7L3,1L5,1L5,7" fill="#ff0000"></path></symbol>
<symbol viewBox="0 0 8 8" id="cg"><path d="M0,7L0,1L6,1" fill="#008000"></path><path d="M2,7L8,1L8,7" fill="#ff0000"></path><path d="M0,7L6,1L8,1L2,7" fill="#f0f000"></path></symbol>
<symbol viewBox="0 0 8 8" id="ch"><path d="M0,8L0,0L8,0L8,8" fill="#ff0000"></path><path d="M1,5L1,3L7,3L7,5M3,7L3,1L5,1L5,7" fill="#ffffff"></path></symbol>
<symbol viewBox="0 0 8 8" id="ci"><path d="M0,7L0,1L8,1L8,7" fill="#ffffff"></path><path d="M0,7L0,1L2.5,1L2.5,7" fill="#ff8000"></path><path d="M5.5,7L5.5,1L8,1L8,7" fill="#008000"></path></symbol>
<symbol viewBox="0 0 8 8" id="cl"><path d="M0,7L0,4L8,4L8,7" fill="#ff0000"></path><path d="M0,4L0,1L2.5,1L2.5,4" fill="#0000c0"></path><path d="M2.5,4L2.5,1L8,1L8,4M1,3L1,1L2,3L0,2L2,2" fill="#ffffff"></path></symbol>
<symbol viewBox="0 0 8 8" id="cm"><path d="M0,7L0,1L8,1L8,7" fill="#ff0000"></path><path d="M0,7L0,1L2.5,1L2.5,7" fill="#008000"></path><path d="M5.5,7L5.5,1L8,1L8,7M3,5L4,3L5,5L3,3.5L5,3.5" fill="#f0f000"></path></symbol>
<symbol viewBox="0 0 8 8" id="cn"><path d="M0,7L0,1L8,1L8,7" fill="#ff0000"></path><path d="M1,4L3,2.5L1,2.5L3,4L2,2M3,1.5L4,1L4,5L3,4.5L5,4L4,3L5,2" fill="#f0f000"></path></symbol>
<symbol viewBox="0 0 8 8" id="co"><path d="M0,4L0,1L8,1L8,4" fill="#f0f000"></path><path d="M0,7L0,4L8,4L8,7" fill="#0000c0"></path><path d="M0,7L0,5.5L8,5.5L8,7" fill="#ff0000"></path></symbol>
<symbol viewBox="0 0 8 8" id="cr"><path d="M0,7L0,1L8,1L8,7" fill="#0000c0"></path><path d="M0,6L0,2L8,2L8,6" fill="#ffffff"></path><path d="M0,5L0,3L8,3L8,5" fill="#ff0000"></path><path d="M3,5L2,4L3,3L4,4" fill="#ffffff"></path></symbol>
<symbol viewBox="0 0 8 8" id="cu"><path d="M0,7L0,1L8,1L8,7" fill="#0000c0"></path><path d="M0,3L0,2L8,2L8,3M0,6L0,5L8,5L8,6" fill="#ffffff"></path><path d="M0,7L0,1L5,4" fill="#ff0000"></path><path d="M1,5L1,3L3,5L0,4L3,3" fill="#ffffff"></path></symbol>
<symbol viewBox="0 0 8 8" id="cv"><path d="M0,7L0,1L8,1L8,7" fill="#0000c0"></path><path d="M0,6L0,4L8,4L8,6" fill="#ffffff"></path><path d="M0,5.5L0,4.5L8,4.5L8,5.5" fill="#ff0000"></path></symbol>
<symbol viewBox="0 0 8 8" id="cy"><path d="M0,7L0,1L8,1L8,7" fill="#ffffff"></path><path d="M4,5Q0,4,3,3L3,2Q4,3,7,2Q5,3,6,4" fill="#ff8000"></path><path d="M1,6Q4,8,7,6" fill="#008000"></path></symbol>
<symbol viewBox="0 0 8 8" id="cz"><path d="M0,4L0,1L8,1L8,4" fill="#ffffff"></path><path d="M0,7L0,4L8,4L8,7" fill="#ff0000"></path><path d="M0,7L0,1L4,4" fill="#0000c0"></path></symbol>
<symbol viewBox="0 0 8 8" id="de"><path d="M0,3L0,1L8,1L8,3" fill="#000000"></path><path d="M0,5L0,3L8,3L8,5" fill="#ff0000"></path><path d="M0,7L0,5L8,5L8,7" fill="#f0f000"></path></symbol>
<symbol viewBox="0 0 8 8" id="dj"><path d="M0,7L0,1L8,1L8,7" fill="#0080ff"></path><path d="M0,7L0,4L8,4L8,7" fill="#008000"></path><path d="M0,7L0,1L4,4" fill="#ffffff"></path><path d="M1,5L1,3L2,5L0.5,4L2,3" fill="#ff0000"></path></symbol>
<symbol viewBox="0 0 8 8" id="dk"><path d="M0,7L0,1L8,1L8,7" fill="#ff0000"></path><path d="M2,7L2,1L4,1L4,7M0,5L0,3L8,3L8,5" fill="#ffffff"></path></symbol>
<symbol viewBox="0 0 8 8" id="dm"><path d="M0,7L0,1L8,1L8,7" fill="#008000"></path><path d="M0,5L0,4L8,4L8,5M4,7L4,1L5,1L5,7" fill="#ffffff"></path><path d="M0,4.5L0,3L8,3L8,4.5M3,7L3,1L4.5,1L4.5,7" fill="#000000"></path><path d="M3,7L3,1L3.5,1L3.5,7M0,3.5L0,3L8,3L8,3.5" fill="#f0f000"></path><path d="M4,6L2,4L4,2L6,4" fill="#ff0000"></path></symbol>
<symbol viewBox="0 0 8 8" id="do"><path d="M0,7L0,1L8,1L8,7" fill="#ffffff"></path><path d="M0,7L0,5L3,5L3,7M5,3L5,1L8,1L8,3" fill="#ff0000"></path><path d="M0,3L0,1L3,1L3,3M5,7L5,5L8,5L8,7" fill="#0000c0"></path><path d="M3,4L4,3L5,4L4,5" fill="#008000"></path></symbol>
<symbol viewBox="0 0 8 8" id="dz"><path d="M0,7L0,1L4,1L4,7" fill="#008000"></path><path d="M4,7L4,1L8,1L8,7" fill="#ffffff"></path><path d="M3,6C0,6,0,2,3,2L4,2C1,2,1,6,4,6M6,4L4,5L5.5,3L5.5,5L4,3" fill="#ff0000"></path></symbol>
<symbol viewBox="0 0 8 8" id="ec"><path d="M0,4L0,1L8,1L8,4" fill="#f0f000"></path><path d="M0,7L0,4L8,4L8,7" fill="#0000c0"></path><path d="M0,7L0,5.5L8,5.5L8,7" fill="#ff0000"></path><path d="M4,6L3,5L3.5,4L3,2L4,3L5,2L4.5,4L5,5" fill="#000000"></path></symbol>
<symbol viewBox="0 0 8 8" id="ee"><path d="M0,7L0,1L8,1L8,7" fill="#0080ff"></path><path d="M0,5L0,3L8,3L8,5" fill="#000000"></path><path d="M0,7L0,5L8,5L8,7" fill="#ffffff"></path></symbol>
<symbol viewBox="0 0 8 8" id="eg"><path d="M0,7L0,1L8,1L8,7" fill="#ff0000"></path><path d="M0,5L0,3L8,3L8,5" fill="#ffffff"></path><path d="M0,7L0,5L8,5L8,7" fill="#000000"></path><path d="M3,5L3,3L5,3L5,5" fill="#f0f000"></path></symbol>
<symbol viewBox="0 0 8 8" id="er"><path d="M0,4L0,1L8,1L8,4" fill="#008000"></path><path d="M0,7L0,4L8,4L8,7" fill="#0080ff"></path><path d="M0,7L0,1L8,4" fill="#ff0000"></path><path d="M1,5L1,3L3,3L3,5" fill="#f0f000"></path></symbol>
<symbol viewBox="0 0 8 8" id="es"><path d="M0,7L0,1L8,1L8,7" fill="#ff0000"></path><path d="M0,6L0,2L8,2L8,6" fill="#f0f000"></path><path d="M1,3L1,5L3,5L3,3" fill="#ff0000"></path></symbol>
<symbol viewBox="0 0 8 8" id="et"><path d="M0,3L0,1L8,1L8,3" fill="#008000"></path><path d="M0,5L0,3L8,3L8,5" fill="#f0f000"></path><path d="M0,7L0,5L8,5L8,7" fill="#ff0000"></path><path d="M4,6C1.5,6,1.5,2,4,2C6.5,2,6.5,6,4,6" fill="#0000c0"></path></symbol>
<symbol viewBox="0 0 8 8" id="fi"><path d="M0,7L0,1L8,1L8,7" fill="#ffffff"></path><path d="M2,7L2,1L4,1L4,7M0,5L0,3L8,3L8,5" fill="#0000c0"></path></symbol>
<symbol viewBox="0 0 8 8" id="fm"><path d="M0,7L0,1L8,1L8,7" fill="#0080ff"></path><path d="M3,2L5,3L4,1L3,3L5,2M1,5L3,4L1,3L2,5L2,3M6,3L7,5L5,4L7,3L6,5M4,7L5,5L3,6L5,6L3,5" fill="#ffffff"></path></symbol>
<symbol viewBox="0 0 8 8" id="fr"><path d="M0,7L0,1L8,1L8,7" fill="#ffffff"></path><path d="M0,7L0,1L2.5,1L2.5,7" fill="#0000c0"></path><path d="M5.5,7L5.5,1L8,1L8,7" fill="#ff0000"></path></symbol>
<symbol viewBox="0 0 8 8" id="ga"><path d="M0,3L0,1L8,1L8,3" fill="#008000"></path><path d="M0,5L0,3L8,3L8,5" fill="#f0f000"></path><path d="M0,7L0,5L8,5L8,7" fill="#0000c0"></path></symbol>
<symbol viewBox="0 0 8 8" id="gb"><path d="M0,7L0,1L8,1L8,7" fill="#0000c0"></path><path d="M7,7L0,2L0,1L1,1L8,6L8,7M1,7L0,7L0,6L7,1L8,1L8,2" fill="#ffffff"></path><path d="M7.5,7L0,1.5L0,1L0.5,1L8,6.5L8,7M0.5,7L0,7L0,6.5L7.5,1L8,1L8,1.5" fill="#ff0000"></path><path d="M0,5L0,3L8,3L8,5M3,7L3,1L5,1L5,7" fill="#ffffff"></path><path d="M3.5,7L3.5,1L4.5,1L4.5,7M0,4.5L0,3.5L8,3.5L8,4.5" fill="#ff0000"></path></symbol>
<symbol viewBox="0 0 8 8" id="gd"><path d="M0,7L0,1L8,1L8,7" fill="#ff0000"></path><path d="M1,6L1,2L7,2L7,6" fill="#008000"></path><path d="M7,6L1,2L7,2L1,6" fill="#f0f000"></path><path d="M3,4L4,3L5,4L4,5" fill="#ff0000"></path></symbol>
<symbol viewBox="0 0 8 8" id="ge"><path d="M0,7L0,1L8,1L8,7" fill="#ffffff"></path><path d="M3,7L3,1L5,1L5,7M0,5L0,3L8,3L8,5M2,2L1,2L1,1M6,2L7,2L7,1M2,6L1,6L1,7M7,7L7,6L6,6" fill="#ff0000"></path></symbol>
<symbol viewBox="0 0 8 8" id="gh"><path d="M0,3L0,1L8,1L8,3" fill="#ff0000"></path><path d="M0,5L0,3L8,3L8,5" fill="#f0f000"></path><path d="M0,7L0,5L8,5L8,7" fill="#008000"></path><path d="M3,5L4,3L5,5L3,3.5L5,3.5" fill="#000000"></path></symbol>
<symbol viewBox="0 0 8 8" id="gm"><path d="M0,3L0,1L8,1L8,3" fill="#ff0000"></path><path d="M0,7L0,5L8,5L8,7" fill="#008000"></path><path d="M0,5.5L0,2.5L8,2.5L8,5.5" fill="#ffffff"></path><path d="M0,5L0,3L8,3L8,5" fill="#0000c0"></path></symbol>
<symbol viewBox="0 0 8 8" id="gn"><path d="M0,7L0,1L8,1L8,7" fill="#f0f000"></path><path d="M0,7L0,1L2.5,1L2.5,7" fill="#ff0000"></path><path d="M5.5,7L5.5,1L8,1L8,7" fill="#008000"></path></symbol>
<symbol viewBox="0 0 8 8" id="gq"><path d="M0,3L0,1L8,1L8,3" fill="#008000"></path><path d="M0,5L0,3L8,3L8,5" fill="#ffffff"></path><path d="M0,7L0,5L8,5L8,7" fill="#ff0000"></path><path d="M0,7L0,1L3,4" fill="#0080ff"></path></symbol>
<symbol viewBox="0 0 8 8" id="gr"><path d="M0,7L0,1L8,1L8,7" fill="#0080ff"></path><path d="M0,6L0,5L8,5L8,6M0,3L0,2L8,2L8,1L3,1L3,4L8,4L8,3M1,4L1,1L2,1L2,4" fill="#ffffff"></path></symbol>
<symbol viewBox="0 0 8 8" id="gt"><path d="M0,7L0,1L8,1L8,7" fill="#0080ff"></path><path d="M2.5,7L2.5,1L5.5,1L5.5,7" fill="#ffffff"></path><path d="M4,5L3,4L4,3L5,4" fill="#008000"></path></symbol>
<symbol viewBox="0 0 8 8" id="gw"><path d="M3,4L3,1L8,1L8,4" fill="#f0f000"></path><path d="M0,7L0,1L3,1L3,7" fill="#ff0000"></path><path d="M3,7L3,4L8,4L8,7" fill="#008000"></path><path d="M2,5L0.5,3.5L2.5,3.5L1,5L1.5,3" fill="#000000"></path></symbol>
<symbol viewBox="0 0 8 8" id="gy"><path d="M0,7L0,1L8,1L8,7" fill="#008000"></path><path d="M8,4L0,7L0,1" fill="#ffffff"></path><path d="M7,4L0,6L0,2" fill="#f0f000"></path><path d="M4,4L0,7L0,1" fill="#000000"></path><path d="M3,4L0,6L0,2" fill="#ff0000"></path></symbol>
<symbol viewBox="0 0 8 8" id="hn"><path d="M0,7L0,1L8,1L8,7" fill="#0000c0"></path><path d="M0,5L0,3L8,3L8,5" fill="#ffffff"></path><path d="M2,4L3,3L4,5L5,3L6,4" fill="#0000c0"></path></symbol>
<symbol viewBox="0 0 8 8" id="hr"><path d="M0,7L0,1L8,1L8,7" fill="#ff0000"></path><path d="M0,5L0,3L8,3L8,5" fill="#ffffff"></path><path d="M0,7L0,5L8,5L8,7M3,3L3,2L5,2L5,3" fill="#0000c0"></path><path d="M3,5L3,3L5,3L5,5" fill="#ff0000"></path></symbol>
<symbol viewBox="0 0 8 8" id="ht"><path d="M0,4L0,1L8,1L8,4" fill="#0000c0"></path><path d="M0,7L0,4L8,4L8,7" fill="#ff0000"></path><path d="M3,5L3,3L5,3L5,5" fill="#ffffff"></path><path d="M3,5Q4,3,5,5" fill="#008000"></path></symbol>
<symbol viewBox="0 0 8 8" id="hu"><path d="M0,3L0,1L8,1L8,3" fill="#ff0000"></path><path d="M0,5L0,3L8,3L8,5" fill="#ffffff"></path><path d="M0,7L0,5L8,5L8,7" fill="#008000"></path></symbol>
<symbol viewBox="0 0 8 8" id="id"><path d="M0,4L0,1L8,1L8,4" fill="#ff0000"></path><path d="M0,7L0,4L8,4L8,7" fill="#ffffff"></path></symbol>
<symbol viewBox="0 0 8 8" id="ie"><path d="M0,7L0,1L8,1L8,7" fill="#ffffff"></path><path d="M0,7L0,1L2.5,1L2.5,7" fill="#008000"></path><path d="M5.5,7L5.5,1L8,1L8,7" fill="#ff8000"></path></symbol>
<symbol viewBox="0 0 8 8" id="il"><path d="M0,7L0,1L8,1L8,7" fill="#0000c0"></path><path d="M0,6L0,2L8,2L8,6" fill="#ffffff"></path><path d="M2,5L4,2L6,5M2,3L4,6L6,3" fill="#0000c0"></path></symbol>
<symbol viewBox="0 0 8 8" id="in"><path d="M0,3L0,1L8,1L8,3" fill="#ff8000"></path><path d="M0,5L0,3L8,3L8,5" fill="#ffffff"></path><path d="M0,7L0,5L8,5L8,7" fill="#008000"></path><path d="M4,5L3,4L4,3L5,4" fill="#0000c0"></path></symbol>
<symbol viewBox="0 0 8 8" id="iq"><path d="M0,3L0,1L8,1L8,3" fill="#ff0000"></path><path d="M0,5L0,3L8,3L8,5" fill="#ffffff"></path><path d="M0,7L0,5L8,5L8,7" fill="#000000"></path><path d="M2,5L2,4L6,4L5,3" fill="#008000"></path></symbol>
<symbol viewBox="0 0 8 8" id="ir"><path d="M0,3L0,1L8,1L8,3" fill="#008000"></path><path d="M0,5L0,3L8,3L8,5" fill="#ffffff"></path><path d="M0,7L0,5L8,5L8,7M4,5L3,4L4,3L5,4" fill="#ff0000"></path></symbol>
<symbol viewBox="0 0 8 8" id="is"><path d="M0,7L0,1L8,1L8,7" fill="#0000c0"></path><path d="M2,7L2,1L4,1L4,7M0,5L0,3L8,3L8,5" fill="#ffffff"></path><path d="M2.5,7L2.5,1L3.5,1L3.5,7M0,4.5L0,3.5L8,3.5L8,4.5" fill="#ff0000"></path></symbol>
<symbol viewBox="0 0 8 8" id="it"><path d="M0,7L0,1L8,1L8,7" fill="#ffffff"></path><path d="M0,7L0,1L2.5,1L2.5,7" fill="#008000"></path><path d="M5.5,7L5.5,1L8,1L8,7" fill="#ff0000"></path></symbol>
<symbol viewBox="0 0 8 8" id="jm"><path d="M0,7L0,1L8,1L8,7" fill="#008000"></path><path d="M0,7L0,1L8,7L8,1" fill="#000000"></path><path d="M8,7L7,7L0,2L0,1L1,1L8,6M1,7L0,7L0,6L7,1L8,1L8,2" fill="#f0f000"></path></symbol>
<symbol viewBox="0 0 8 8" id="jo"><path d="M0,3L0,1L8,1L8,3" fill="#000000"></path><path d="M0,5L0,3L8,3L8,5" fill="#ffffff"></path><path d="M0,7L0,5L8,5L8,7" fill="#008000"></path><path d="M4,4L0,7L0,1" fill="#ff0000"></path><path d="M1,4.5L2,3L2,5L1,3.5L3,4" fill="#ffffff"></path></symbol>
<symbol viewBox="0 0 8 8" id="jp"><path d="M0,7L0,1L8,1L8,7" fill="#ffffff"></path><path d="M4,6C1,6,1,2,4,2C7,2,7,6,4,6" fill="#ff0000"></path></symbol>
<symbol viewBox="0 0 8 8" id="ke"><path d="M0,3L0,1L8,1L8,3" fill="#000000"></path><path d="M0,7L0,5L8,5L8,7" fill="#008000"></path><path d="M0,5.5L0,2.5L8,2.5L8,5.5" fill="#ffffff"></path><path d="M0,5L0,3L8,3L8,5M4,6Q2,4,4,2Q6,4,4,6" fill="#ff0000"></path><path d="M3,5Q4,4,3,3M5,3Q4,4,5,5" fill="#000000"></path></symbol>
<symbol viewBox="0 0 8 8" id="kg"><path d="M0,7L0,1L8,1L8,7" fill="#ff0000"></path><path d="M4,5.5C2,6,2,2,4,2.5C6,2,6,6,4,5.5" fill="#f0f000"></path><path d="M3,6Q3,3,6,3Q4,4,3,6M5,6Q4,4,2,3Q5,3,5,6" fill="#ff0000"></path></symbol>
<symbol viewBox="0 0 8 8" id="kh"><path d="M0,7L0,1L8,1L8,7" fill="#0000c0"></path><path d="M0,6L0,2L8,2L8,6" fill="#ff0000"></path><path d="M2,5L3,3L5,3L6,5" fill="#ffffff"></path></symbol>
<symbol viewBox="0 0 8 8" id="ki"><path d="M0,4L0,1L8,1L8,4" fill="#ff0000"></path><path d="M0,7L0,4L8,4L8,7" fill="#0000c0"></path><path d="M0,6L0,5L8,5L8,6" fill="#ffffff"></path><path d="M2,4Q4,1,6,4M3,2L3,1.5L5,1.5L5,2" fill="#f0f000"></path></symbol>
<symbol viewBox="0 0 8 8" id="km"><path d="M0,3L0,1L8,1L8,3" fill="#f0f000"></path><path d="M0,4L0,2.5L8,2.5L8,4" fill="#ffffff"></path><path d="M0,6L0,4L8,4L8,6" fill="#ff0000"></path><path d="M0,7L0,5.5L8,5.5L8,7" fill="#0000c0"></path><path d="M0,7L0,1L4,4" fill="#008000"></path><path d="M2,5Q-1,4,2,3Q1,4,2,5" fill="#ffffff"></path></symbol>
<symbol viewBox="0 0 8 8" id="kn"><path d="M0,7L0,1L8,1L8,7" fill="#f0f000"></path><path d="M0,7L0,6L6,1L8,1L8,2L2,7" fill="#000000"></path><path d="M3,7L8,3L8,7" fill="#ff0000"></path><path d="M0,5L0,1L5,1" fill="#008000"></path><path d="M6,3L5,3L6,2M2,6L2,5L3,5" fill="#ffffff"></path></symbol>
<symbol viewBox="0 0 8 8" id="kp"><path d="M0,7L0,1L8,1L8,7" fill="#0000c0"></path><path d="M0,6L0,2L8,2L8,6" fill="#ffffff"></path><path d="M0,5.5L0,2.5L8,2.5L8,5.5" fill="#ff0000"></path><path d="M3,5L2,4L3,3L4,4" fill="#ffffff"></path></symbol>
<symbol viewBox="0 0 8 8" id="kr"><path d="M0,7L0,1L8,1L8,7" fill="#ffffff"></path><path d="M1,3L2,2L3,2L2,3M7,3L6,3L5,2L6,2M2,6L1,5L2,5L3,6M6,6L5,6L6,5L7,5" fill="#000000"></path><path d="M5,3L2,4Q4,7.5,6,4" fill="#0000c0"></path><path d="M6,4C4,2,4,6,2,4Q4,0.5,6,4" fill="#ff0000"></path></symbol>
<symbol viewBox="0 0 8 8" id="kw"><path d="M0,3L0,1L8,1L8,3" fill="#008000"></path><path d="M0,5L0,3L8,3L8,5" fill="#ffffff"></path><path d="M0,7L0,5L8,5L8,7" fill="#ff0000"></path><path d="M0,7L0,1L2,3L2,5" fill="#000000"></path></symbol>
<symbol viewBox="0 0 8 8" id="kz"><path d="M0,7L0,1L8,1L8,7" fill="#0080ff"></path><path d="M4,4L3,3L4,2L5,3M0.5,6L0.5,2L1,2L1,6M6,4Q4,8,2,4Q4,6,6,4" fill="#f0f000"></path></symbol>
<symbol viewBox="0 0 8 8" id="la"><path d="M0,7L0,1L8,1L8,7" fill="#ff0000"></path><path d="M0,6L0,2L8,2L8,6" fill="#0000c0"></path><path d="M4,5.5C2,5,2,3,4,2.5C6,3,6,5,4,5.5" fill="#ffffff"></path></symbol>
<symbol viewBox="0 0 8 8" id="lb"><path d="M0,7L0,1L8,1L8,7" fill="#ff0000"></path><path d="M0,6L0,2L8,2L8,6" fill="#ffffff"></path><path d="M4,6L2,5L4,2L6,5" fill="#008000"></path></symbol>
<symbol viewBox="0 0 8 8" id="lc"><path d="M0,7L0,1L8,1L8,7" fill="#0080ff"></path><path d="M2,6L4,2L6,6" fill="#ffffff"></path><path d="M2.5,6L4,3L5.5,6" fill="#000000"></path><path d="M2,6L4,4.5L6,6" fill="#f0f000"></path></symbol>
<symbol viewBox="0 0 8 8" id="li"><path d="M0,4L0,1L8,1L8,4" fill="#0000c0"></path><path d="M0,7L0,4L8,4L8,7" fill="#ff0000"></path><path d="M1,3L1,2L3,2L3,3" fill="#f0f000"></path></symbol>
<symbol viewBox="0 0 8 8" id="lk"><path d="M0,7L0,1L8,1L8,7" fill="#f0f000"></path><path d="M3,6L3,2L7,2L7,6" fill="#ff0000"></path><path d="M1,6L1,2L2,2L2,6" fill="#008000"></path><path d="M5,5L4,4L5,3L6,4" fill="#e0e000"></path></symbol>
<symbol viewBox="0 0 8 8" id="lr"><path d="M0,7L0,1L8,1L8,7" fill="#ff0000"></path><path d="M0,4L0,1L3,1L3,4" fill="#0000c0"></path><path d="M0,5L0,4L8,4L8,5M0,7L0,6L8,6L8,7M3,3L3,2L8,2L8,3M1,3L1,1L2,3L0,2L2,2" fill="#ffffff"></path></symbol>
<symbol viewBox="0 0 8 8" id="ls"><path d="M0,3L0,1L8,1L8,3" fill="#0000c0"></path><path d="M0,5L0,3L8,3L8,5" fill="#ffffff"></path><path d="M0,7L0,5L8,5L8,7" fill="#008000"></path><path d="M3,5L4,3L5,5" fill="#000000"></path></symbol>
<symbol viewBox="0 0 8 8" id="lt"><path d="M0,3L0,1L8,1L8,3" fill="#f0f000"></path><path d="M0,5L0,3L8,3L8,5" fill="#008000"></path><path d="M0,7L0,5L8,5L8,7" fill="#ff0000"></path></symbol>
<symbol viewBox="0 0 8 8" id="lu"><path d="M0,3L0,1L8,1L8,3" fill="#ff0000"></path><path d="M0,5L0,3L8,3L8,5" fill="#ffffff"></path><path d="M0,7L0,5L8,5L8,7" fill="#0080ff"></path></symbol>
<symbol viewBox="0 0 8 8" id="lv"><path d="M0,7L0,1L8,1L8,7" fill="#ff0000"></path><path d="M0,4.5L0,3.5L8,3.5L8,4.5" fill="#ffffff"></path></symbol>
<symbol viewBox="0 0 8 8" id="ly"><path d="M0,3L0,1L8,1L8,3" fill="#ff0000"></path><path d="M0,5L0,3L8,3L8,5" fill="#000000"></path><path d="M0,7L0,5L8,5L8,7" fill="#008000"></path><path d="M4,5Q0,4,4,3Q2,4,4,5M4,5L4,3L5,4.5L3.5,4L5,3.5" fill="#ffffff"></path></symbol>
<symbol viewBox="0 0 8 8" id="ma"><path d="M0,7L0,1L8,1L8,7" fill="#ff0000"></path><path d="M4,5L2.5,6L4,1.5L5.5,6M2,3L4,5L6,3" fill="#008000"></path></symbol>
<symbol viewBox="0 0 8 8" id="mc"><path d="M0,4L0,1L8,1L8,4" fill="#ff0000"></path><path d="M0,7L0,4L8,4L8,7" fill="#ffffff"></path></symbol>
<symbol viewBox="0 0 8 8" id="md"><path d="M0,7L0,1L8,1L8,7" fill="#f0f000"></path><path d="M0,7L0,1L2.5,1L2.5,7" fill="#0000c0"></path><path d="M5.5,7L5.5,1L8,1L8,7" fill="#ff0000"></path><path d="M4,5L3,4L3,3L5,3L5,4" fill="#c0c0c0"></path></symbol>
<symbol viewBox="0 0 8 8" id="me"><path d="M0,7L0,1L8,1L8,7" fill="#f0f000"></path><path d="M1,6L1,2L7,2L7,6" fill="#ff0000"></path><path d="M5,3C7,6,1,6,3,3L4,4" fill="#e0e000"></path></symbol>
<symbol viewBox="0 0 8 8" id="mg"><path d="M3,4L3,1L8,1L8,4" fill="#ff0000"></path><path d="M0,7L0,1L3,1L3,7" fill="#ffffff"></path><path d="M3,7L3,4L8,4L8,7" fill="#008000"></path></symbol>
<symbol viewBox="0 0 8 8" id="mh"><path d="M0,7L0,1L8,1L8,7" fill="#0080ff"></path><path d="M0,7L8,2L8,3M2,4L1,3L2,2L3,3" fill="#ffffff"></path><path d="M0,7L8,1L8,2" fill="#ff8000"></path></symbol>
<symbol viewBox="0 0 8 8" id="mk"><path d="M0,7L0,1L8,1L8,7" fill="#ff0000"></path><path d="M0,1L1,1L8,7L7,7M0,4.5L0,3.5L8,4.5L8,3.5M3.5,7L4.5,1L3.5,1L4.5,7M0,7L7,1L8,1L1,7" fill="#f0f000"></path></symbol>
<symbol viewBox="0 0 8 8" id="ml"><path d="M0,7L0,1L8,1L8,7" fill="#f0f000"></path><path d="M0,7L0,1L2.5,1L2.5,7" fill="#008000"></path><path d="M5.5,7L5.5,1L8,1L8,7" fill="#ff0000"></path></symbol>
<symbol viewBox="0 0 8 8" id="mm"><path d="M0,3L0,1L8,1L8,3" fill="#f0f000"></path><path d="M0,5L0,3L8,3L8,5" fill="#008000"></path><path d="M0,7L0,5L8,5L8,7" fill="#ff0000"></path><path d="M3,6L4,2L5,6L2,3.5L6,3.5" fill="#ffffff"></path></symbol>
<symbol viewBox="0 0 8 8" id="mn"><path d="M0,7L0,1L8,1L8,7" fill="#ff0000"></path><path d="M2.5,7L2.5,1L5.5,1L5.5,7" fill="#0080ff"></path><path d="M1,6L2,3L1,3L2,6" fill="#f0f000"></path></symbol>
<symbol viewBox="0 0 8 8" id="mr"><path d="M0,7L0,1L8,1L8,7" fill="#008000"></path><path d="M6,3C7,6,1,6,2,3C3,5,5,5,6,3M3.5,3L4,1.5L4.5,3L3,2L5,2" fill="#f0f000"></path></symbol>
<symbol viewBox="0 0 8 8" id="mt"><path d="M0,7L0,1L4,1L4,7" fill="#ffffff"></path><path d="M4,7L4,1L8,1L8,7" fill="#ff0000"></path><path d="M0,2L1,1L2,2L1,3" fill="#c0c0c0"></path></symbol>
<symbol viewBox="0 0 8 8" id="mu"><path d="M0,3L0,1L8,1L8,3" fill="#ff0000"></path><path d="M0,4L0,2.5L8,2.5L8,4" fill="#0000c0"></path><path d="M0,6L0,4L8,4L8,6" fill="#f0f000"></path><path d="M0,7L0,5.5L8,5.5L8,7" fill="#008000"></path></symbol>
<symbol viewBox="0 0 8 8" id="mv"><path d="M0,7L0,1L8,1L8,7" fill="#ff0000"></path><path d="M1,6L1,2L7,2L7,6" fill="#008000"></path><path d="M5,5Q1,4,5,3Q3,4,5,5" fill="#ffffff"></path></symbol>
<symbol viewBox="0 0 8 8" id="mw"><path d="M0,3L0,1L8,1L8,3" fill="#000000"></path><path d="M0,5L0,3L8,3L8,5M2,2.5Q4,0,6,2.5" fill="#ff0000"></path><path d="M0,7L0,5L8,5L8,7" fill="#008000"></path></symbol>
<symbol viewBox="0 0 8 8" id="mx"><path d="M0,7L0,1L8,1L8,7" fill="#ffffff"></path><path d="M0,7L0,1L2.5,1L2.5,7" fill="#008000"></path><path d="M5.5,7L5.5,1L8,1L8,7" fill="#ff0000"></path><path d="M4,5L3,4L4,3L5,4" fill="#c0c0c0"></path></symbol>
<symbol viewBox="0 0 8 8" id="my"><path d="M0,7L0,1L8,1L8,7" fill="#ffffff"></path><path d="M4,4L4,3L8,3L8,4M0,6L0,5L8,5L8,6M4,2L4,1L8,1L8,2" fill="#ff0000"></path><path d="M0,4L0,1L4,1L4,4" fill="#0000c0"></path><path d="M2,3.5Q-1,2.5,2,1.5Q0,2.5,2,3.5M3,3L3,2L2,2.5" fill="#f0f000"></path></symbol>
<symbol viewBox="0 0 8 8" id="mz"><path d="M0,3L0,1L8,1L8,3" fill="#008000"></path><path d="M0,5L0,3L8,3L8,5" fill="#000000"></path><path d="M0,7L0,5L8,5L8,7" fill="#f0f000"></path><path d="M0,7L0,1L4,4" fill="#ff0000"></path><path d="M0,3.5L2,3.5L0,5L1,3L2,5" fill="#e0e000"></path></symbol>
<symbol viewBox="0 0 8 8" id="na"><path d="M0,7L0,1L8,1L8,7" fill="#ffffff"></path><path d="M0,7L0,6L6,1L8,1L8,2L2,7" fill="#ff0000"></path><path d="M2.5,7L8,2.5L8,7" fill="#008000"></path><path d="M0,5.5L0,1L5.5,1" fill="#0000c0"></path><path d="M2,3L1,2L2,1L3,2" fill="#f0f000"></path></symbol>
<symbol viewBox="0 0 8 8" id="ne"><path d="M0,5L0,3L8,3L8,5" fill="#ffffff"></path><path d="M0,3L0,1L8,1L8,3M4,5L3,4L4,3L5,4" fill="#ff8000"></path><path d="M0,7L0,5L8,5L8,7" fill="#008000"></path></symbol>
<symbol viewBox="0 0 8 8" id="ng"><path d="M0,7L0,1L8,1L8,7" fill="#008000"></path><path d="M2.5,7L2.5,1L5.5,1L5.5,7" fill="#ffffff"></path></symbol>
<symbol viewBox="0 0 8 8" id="ni"><path d="M0,7L0,1L8,1L8,7" fill="#0080ff"></path><path d="M0,5L0,3L8,3L8,5" fill="#ffffff"></path><path d="M5,4.5L3,4.5L4,3" fill="#008000"></path></symbol>
<symbol viewBox="0 0 8 8" id="nl"><path d="M0,3L0,1L8,1L8,3" fill="#ff0000"></path><path d="M0,5L0,3L8,3L8,5" fill="#ffffff"></path><path d="M0,7L0,5L8,5L8,7" fill="#0000c0"></path></symbol>
<symbol viewBox="0 0 8 8" id="no"><path d="M0,7L0,1L8,1L8,7" fill="#ff0000"></path><path d="M2,7L2,1L4,1L4,7M0,5L0,3L8,3L8,5" fill="#ffffff"></path><path d="M2.5,7L2.5,1L3.5,1L3.5,7M0,4.5L0,3.5L8,3.5L8,4.5" fill="#0000c0"></path></symbol>
<symbol viewBox="0 0 8 8" id="np"><path d="M0,7L0,1L5,4L2,4L5,7" fill="#ff0000"></path><path d="M1,6L0,5L2,3L0,3L2,5" fill="#ffffff"></path></symbol>
<symbol viewBox="0 0 8 8" id="nr"><path d="M0,7L0,1L8,1L8,7" fill="#0000c0"></path><path d="M0,4L0,3L8,3L8,4" fill="#f0f000"></path><path d="M2,6L1,5L2,4L3,5" fill="#ffffff"></path></symbol>
<symbol viewBox="0 0 8 8" id="nz"><path d="M0,7L0,1L8,1L8,7" fill="#0000c0"></path><path d="M3,4L0,1L1,1L4,4M1,4L0,4L3,1L4,1" fill="#ffffff"></path><path d="M0,3L0,2L4,2L4,3M6,2L7,1L7,2M7,3L8,2L8,3M5,3L5,2L6,3M6,6L7,5L7,6" fill="#ff0000"></path></symbol>
<symbol viewBox="0 0 8 8" id="om"><path d="M0,7L0,1L8,1L8,7" fill="#ff0000"></path><path d="M3,7L3,5L8,5L8,7" fill="#008000"></path><path d="M3,3L3,1L8,1L8,3M2,4L1,2L2,2L1,4" fill="#ffffff"></path></symbol>
<symbol viewBox="0 0 8 8" id="pa"><path d="M0,7L0,1L8,1L8,7" fill="#ffffff"></path><path d="M0,7L0,4L4,4L4,7M1,2L3,3L2,1.5L1.5,3L3,2" fill="#0080ff"></path><path d="M4,4L4,1L8,1L8,4M7,6L5,5L7,5L5,6L6,4.5" fill="#ff0000"></path></symbol>
<symbol viewBox="0 0 8 8" id="pe"><path d="M0,7L0,1L8,1L8,7" fill="#ff0000"></path><path d="M2.5,7L2.5,1L5.5,1L5.5,7" fill="#ffffff"></path><path d="M3,5L3,3L5,3L5,5" fill="#008000"></path></symbol>
<symbol viewBox="0 0 8 8" id="pg"><path d="M0,7L0,1L8,7" fill="#000000"></path><path d="M8,7L0,1L8,1" fill="#ff0000"></path><path d="M3,5L1,4L3,4L1,5L4,6L2,6" fill="#ffffff"></path><path d="M6,4L6,4L5,3L6,2L7,3" fill="#f0f000"></path></symbol>
<symbol viewBox="0 0 8 8" id="ph"><path d="M0,7L0,4L8,4L8,7" fill="#ff0000"></path><path d="M0,4L0,1L8,1L8,4" fill="#0000c0"></path><path d="M4,4L0,7L0,1" fill="#ffffff"></path><path d="M0,5L0,3L2,3L2,5" fill="#f0f000"></path></symbol>
<symbol viewBox="0 0 8 8" id="pk"><path d="M0,7L0,1L2,1L2,7" fill="#ffffff"></path><path d="M2,7L2,1L8,1L8,7" fill="#008000"></path><path d="M7,3L5,3L6,2L6,4M7,5C5,9,0,4,4,2C2,4,5,7,7,5" fill="#ffffff"></path></symbol>
<symbol viewBox="0 0 8 8" id="pl"><path d="M0,7L0,4L8,4L8,7" fill="#ff0000"></path><path d="M0,4L0,1L8,1L8,4" fill="#ffffff"></path></symbol>
<symbol viewBox="0 0 8 8" id="ps"><path d="M0,3L0,1L8,1L8,3" fill="#008000"></path><path d="M2,5L2,3L8,3L8,5" fill="#ffffff"></path><path d="M0,7L0,5L8,5L8,7" fill="#000000"></path><path d="M0,7L0,1L4,4" fill="#ff0000"></path></symbol>
<symbol viewBox="0 0 8 8" id="pt"><path d="M3,7L3,1L8,1L8,7" fill="#ff0000"></path><path d="M0,7L0,1L3,1L3,7" fill="#008000"></path><path d="M3,6L1,4L3,2L5,4" fill="#f0f000"></path><path d="M3,5L2,4L3,3L4,4" fill="#ff0000"></path></symbol>
<symbol viewBox="0 0 8 8" id="pw"><path d="M0,7L0,1L8,1L8,7" fill="#0080ff"></path><path d="M3,5.5C1,6,1,2,3,2.5C5,2,5,6,3,5.5" fill="#f0f000"></path></symbol>
<symbol viewBox="0 0 8 8" id="py"><path d="M0,3L0,1L8,1L8,3" fill="#ff0000"></path><path d="M0,5L0,3L8,3L8,5" fill="#ffffff"></path><path d="M0,7L0,5L8,5L8,7" fill="#0000c0"></path><path d="M3,4L4,3L5,4L4,5" fill="#ff0000"></path></symbol>
<symbol viewBox="0 0 8 8" id="qa"><path d="M2,7L2,1L8,1L8,7" fill="#800040"></path><path d="M0,7L0,1L2,1L4,2L2,3L4,4L2,5L4,6L2,7" fill="#ffffff"></path></symbol>
<symbol viewBox="0 0 8 8" id="ro"><path d="M0,7L0,1L8,1L8,7" fill="#f0f000"></path><path d="M0,7L0,1L2.5,1L2.5,7" fill="#0000c0"></path><path d="M5.5,7L5.5,1L8,1L8,7" fill="#ff0000"></path></symbol>
<symbol viewBox="0 0 8 8" id="rs"><path d="M0,7L0,5L8,5L8,7" fill="#ffffff"></path><path d="M0,5L0,3L8,3L8,5" fill="#0000c0"></path><path d="M0,3L0,1L8,1L8,3M2,5L2,3.5L4,3.5L4,5L3,6" fill="#ff0000"></path></symbol>
<symbol viewBox="0 0 8 8" id="ru"><path d="M0,3L0,1L8,1L8,3" fill="#ffffff"></path><path d="M0,5L0,3L8,3L8,5" fill="#0000c0"></path><path d="M0,7L0,5L8,5L8,7" fill="#ff0000"></path></symbol>
<symbol viewBox="0 0 8 8" id="rw"><path d="M0,4L0,1L8,1L8,4" fill="#0080ff"></path><path d="M0,7L0,4L8,4L8,7M6,3L6,2L7,2L7,3" fill="#f0f000"></path><path d="M0,7L0,5.5L8,5.5L8,7" fill="#008000"></path></symbol>
<symbol viewBox="0 0 8 8" id="sa"><path d="M0,7L0,1L8,1L8,7" fill="#008000"></path><path d="M7,6L1,5L7,5M1,2L1,4L3,2L5,4L7,2L7,4L5,2L3,4" fill="#ffffff"></path></symbol>
<symbol viewBox="0 0 8 8" id="sb"><path d="M0,7L0,1L8,1L8,7" fill="#f0f000"></path><path d="M1,7L8,2L8,7" fill="#008000"></path><path d="M0,6L0,1L7,1" fill="#0000c0"></path><path d="M0,2L1,1L1,4L0,3L3,3L2,4L2,1L3,2" fill="#ffffff"></path></symbol>
<symbol viewBox="0 0 8 8" id="sc"><path d="M0,7L0,1L3,1" fill="#0000c0"></path><path d="M0,7L3,1L6,1" fill="#f0f000"></path><path d="M0,7L6,1L8,1L8,3" fill="#ff0000"></path><path d="M0,7L8,3L8,5" fill="#ffffff"></path><path d="M0,7L8,5L8,7" fill="#008000"></path></symbol>
<symbol viewBox="0 0 8 8" id="sd"><path d="M0,3L0,1L8,1L8,3" fill="#ff0000"></path><path d="M2,5L2,3L8,3L8,5" fill="#ffffff"></path><path d="M0,7L0,5L8,5L8,7" fill="#000000"></path><path d="M0,7L0,1L4,4" fill="#008000"></path></symbol>
<symbol viewBox="0 0 8 8" id="se"><path d="M0,7L0,1L8,1L8,7" fill="#0000c0"></path><path d="M2,7L2,1L4,1L4,7M0,5L0,3L8,3L8,5" fill="#f0f000"></path></symbol>
<symbol viewBox="0 0 8 8" id="sg"><path d="M0,4L0,1L8,1L8,4" fill="#ff0000"></path><path d="M0,7L0,4L8,4L8,7M3,4Q-1,2.5,3,1Q1,2.5,3,4" fill="#ffffff"></path></symbol>
<symbol viewBox="0 0 8 8" id="si"><path d="M0,4L0,1L8,1L8,4" fill="#ffffff"></path><path d="M0,5L0,3L8,3L8,5M2,4L3,2L1,2" fill="#0000c0"></path><path d="M0,7L0,5L8,5L8,7" fill="#ff0000"></path></symbol>
<symbol viewBox="0 0 8 8" id="sk"><path d="M0,3L0,1L8,1L8,3" fill="#ffffff"></path><path d="M0,6L0,3L8,3L8,6" fill="#0000c0"></path><path d="M0,7L0,5L8,5L8,7M1,2C1,7,4,7,4,2" fill="#ff0000"></path></symbol>
<symbol viewBox="0 0 8 8" id="sl"><path d="M0,3L0,1L8,1L8,3" fill="#008000"></path><path d="M0,5L0,3L8,3L8,5" fill="#ffffff"></path><path d="M0,7L0,5L8,5L8,7" fill="#0080ff"></path></symbol>
<symbol viewBox="0 0 8 8" id="sm"><path d="M0,4L0,1L8,1L8,4" fill="#ffffff"></path><path d="M0,7L0,4L8,4L8,7" fill="#0080ff"></path><path d="M4,6L2,4L4,2L6,4" fill="#008000"></path></symbol>
<symbol viewBox="0 0 8 8" id="sn"><path d="M0,7L0,1L8,1L8,7" fill="#f0f000"></path><path d="M0,7L0,1L2.5,1L2.5,7M5,5L3,3.5L5,3.5L3,5L4,3" fill="#008000"></path><path d="M5.5,7L5.5,1L8,1L8,7" fill="#ff0000"></path></symbol>
<symbol viewBox="0 0 8 8" id="so"><path d="M0,7L0,1L8,1L8,7" fill="#0080ff"></path><path d="M5.5,6L4,5L2.5,6L4,2M2,3.5L6,3.5L4,5" fill="#ffffff"></path></symbol>
<symbol viewBox="0 0 8 8" id="sr"><path d="M0,7L0,1L8,1L8,7" fill="#008000"></path><path d="M0,6L0,2L8,2L8,6" fill="#ffffff"></path><path d="M0,5.5L0,2.5L8,2.5L8,5.5" fill="#ff0000"></path><path d="M3,5L4,3L5,5L3,3.5L5,3.5" fill="#f0f000"></path></symbol>
<symbol viewBox="0 0 8 8" id="ss"><path d="M0,2L0,1L8,1L8,2" fill="#000000"></path><path d="M0,7L0,6L8,6L8,7" fill="#008000"></path><path d="M0,6L0,2L8,2L8,6" fill="#ffffff"></path><path d="M0,5.5L0,2.5L8,2.5L8,5.5" fill="#ff0000"></path><path d="M0,7L0,1L4,4" fill="#0000c0"></path><path d="M1,5L1,3L2,4.5L0.5,4L2,3.5" fill="#f0f000"></path></symbol>
<symbol viewBox="0 0 8 8" id="st"><path d="M0,7L0,1L8,1L8,7" fill="#008000"></path><path d="M0,5L0,3L8,3L8,5" fill="#f0f000"></path><path d="M0,7L0,1L4,4" fill="#ff0000"></path><path d="M5,4.5L5,3L7,4.5L7,3" fill="#000000"></path></symbol>
<symbol viewBox="0 0 8 8" id="sv"><path d="M0,7L0,1L8,1L8,7" fill="#0000c0"></path><path d="M0,5L0,3L8,3L8,5M5,3Q4,5,3,3Q4,6,5,3" fill="#ffffff"></path></symbol>
<symbol viewBox="0 0 8 8" id="sy"><path d="M0,3L0,1L8,1L8,3" fill="#ff0000"></path><path d="M0,5L0,3L8,3L8,5" fill="#ffffff"></path><path d="M0,7L0,5L8,5L8,7" fill="#000000"></path><path d="M3,4.5L1,3.5L3,3.5L1,4.5L2,3M5,4.5L6,3L7,4.5L5,3.5L7,3.5" fill="#008000"></path></symbol>
<symbol viewBox="0 0 8 8" id="sz"><path d="M0,7L0,1L8,1L8,7" fill="#0000c0"></path><path d="M0,6L0,2L8,2L8,6" fill="#f0f000"></path><path d="M0,5.5L0,2.5L8,2.5L8,5.5" fill="#ff0000"></path><path d="M6,4L4,5L4,3" fill="#ffffff"></path><path d="M2,4L4,3L4,5" fill="#000000"></path></symbol>
<symbol viewBox="0 0 8 8" id="td"><path d="M0,7L0,1L8,1L8,7" fill="#f0f000"></path><path d="M0,7L0,1L2.5,1L2.5,7" fill="#0000c0"></path><path d="M5.5,7L5.5,1L8,1L8,7" fill="#ff0000"></path></symbol>
<symbol viewBox="0 0 8 8" id="tg"><path d="M0,7L0,1L8,1L8,7" fill="#008000"></path><path d="M3,3.5L3,2L8,2L8,3.5M0,6L0,4.5L8,4.5L8,6" fill="#f0f000"></path><path d="M0,4.5L0,1L3.5,1L3.5,4.5" fill="#ff0000"></path><path d="M1,3.5L2,1L3,3.5L1,2L3,2" fill="#ffffff"></path></symbol>
<symbol viewBox="0 0 8 8" id="th"><path d="M0,7L0,1L8,1L8,7" fill="#ff0000"></path><path d="M0,6L0,2L8,2L8,6" fill="#ffffff"></path><path d="M0,5L0,3L8,3L8,5" fill="#0000c0"></path></symbol>
<symbol viewBox="0 0 8 8" id="tj"><path d="M0,3L0,1L8,1L8,3" fill="#ff0000"></path><path d="M0,5L0,3L8,3L8,5" fill="#ffffff"></path><path d="M0,7L0,5L8,5L8,7" fill="#008000"></path><path d="M4,5L3,4L4,3L5,4" fill="#f0f000"></path></symbol>
<symbol viewBox="0 0 8 8" id="tl"><path d="M0,7L0,1L8,1L8,7" fill="#ff0000"></path><path d="M0,7L0,1L5,4" fill="#f0f000"></path><path d="M0,7L0,1L3,4" fill="#000000"></path><path d="M0,4L2,3L1,5" fill="#ffffff"></path></symbol>
<symbol viewBox="0 0 8 8" id="tm"><path d="M0,7L0,1L8,1L8,7" fill="#008000"></path><path d="M1,7L1,1L2,1L2,7" fill="#ff0000"></path><path d="M5,1C7,3,5,5,3,3C5,4,6,3,5,1" fill="#ffffff"></path></symbol>
<symbol viewBox="0 0 8 8" id="tn"><path d="M0,7L0,1L8,1L8,7" fill="#ff0000"></path><path d="M4,6C1,6,1,2,4,2C7,2,7,6,4,6" fill="#ffffff"></path><path d="M4,6Q1,4,4,2Q3,4,4,6M5,5L4,4L5,3" fill="#ff0000"></path></symbol>
<symbol viewBox="0 0 8 8" id="to"><path d="M0,7L0,1L8,1L8,7" fill="#ff0000"></path><path d="M0,4.5L0,1L4.5,1L4.5,4.5" fill="#ffffff"></path><path d="M2,4L2,1L3,1L3,4M1,3L1,2L4,2L4,3" fill="#ff0000"></path></symbol>
<symbol viewBox="0 0 8 8" id="tr"><path d="M0,7L0,1L8,1L8,7" fill="#ff0000"></path><path d="M3,6C0,6,0,2,3,2L4,2C1,2,1,6,4,6M4,5L3,4L4,3L5,4" fill="#ffffff"></path></symbol>
<symbol viewBox="0 0 8 8" id="tt"><path d="M0,7L0,1L8,1L8,7" fill="#ff0000"></path><path d="M5,7L0,1L3,1L8,7" fill="#ffffff"></path><path d="M5.5,7L0.5,1L2.5,1L7.5,7" fill="#000000"></path></symbol>
<symbol viewBox="0 0 8 8" id="tz"><path d="M0,7L0,1L8,1L8,7" fill="#f0f000"></path><path d="M0,7L0,6L6,1L8,1L8,2L2,7" fill="#000000"></path><path d="M0,5L0,1L5,1" fill="#008000"></path><path d="M3,7L8,3L8,7" fill="#0080ff"></path></symbol>
<symbol viewBox="0 0 8 8" id="ua"><path d="M0,4L0,1L8,1L8,4" fill="#0080ff"></path><path d="M0,7L0,4L8,4L8,7" fill="#f0f000"></path></symbol>
<symbol viewBox="0 0 8 8" id="ug"><path d="M0,7L0,1L8,1L8,7" fill="#000000"></path><path d="M0,4L0,3L8,3L8,4M0,7L0,6L8,6L8,7" fill="#ff0000"></path><path d="M0,6L0,5L8,5L8,6M0,3L0,2L8,2L8,3" fill="#f0f000"></path><path d="M4,5L3,4L4,3L5,4" fill="#ffffff"></path></symbol>
<symbol viewBox="0 0 8 8" id="us"><path d="M0,7L0,1L8,1L8,7" fill="#ffffff"></path><path d="M4,4L4,3L8,3L8,4M0,6L0,5L8,5L8,6M4,2L4,1L8,1L8,2" fill="#ff0000"></path><path d="M0,4L0,1L4,1L4,4" fill="#0000c0"></path></symbol>
<symbol viewBox="0 0 8 8" id="uy"><path d="M0,7L0,1L8,1L8,7" fill="#ffffff"></path><path d="M0,7L0,6L8,6L8,7M0,5L0,4L8,4L8,5M3,3L3,2L8,2L8,3" fill="#0080ff"></path><path d="M1,3L0,2L1,1L2,2" fill="#f0f000"></path></symbol>
<symbol viewBox="0 0 8 8" id="uz"><path d="M0,3L0,1L8,1L8,3" fill="#0080ff"></path><path d="M0,7L0,5L8,5L8,7" fill="#008000"></path><path d="M0,5.5L0,2.5L8,2.5L8,5.5" fill="#ff0000"></path><path d="M0,5L0,3L8,3L8,5M2,2Q1,1.5,2,1Q0,1.5,2,2" fill="#ffffff"></path></symbol>
<symbol viewBox="0 0 8 8" id="va"><path d="M0,7L0,1L4,1L4,7" fill="#f0f000"></path><path d="M4,7L4,1L8,1L8,7" fill="#ffffff"></path><path d="M6,5L5,4L6,3L7,4" fill="#c0c0c0"></path></symbol>
<symbol viewBox="0 0 8 8" id="vc"><path d="M2,7L2,1L6,1L6,7" fill="#f0f000"></path><path d="M0,7L0,1L2,1L2,7" fill="#0080ff"></path><path d="M6,7L6,1L8,1L8,7M3,4L3.5,3L4,4L4.5,3L5,4L4,6" fill="#008000"></path></symbol>
<symbol viewBox="0 0 8 8" id="ve"><path d="M0,3L0,1L8,1L8,3" fill="#f0f000"></path><path d="M0,5L0,3L8,3L8,5" fill="#0000c0"></path><path d="M0,7L0,5L8,5L8,7" fill="#ff0000"></path><path d="M6,5Q4,3,2,5Q4,1,6,5" fill="#ffffff"></path></symbol>
<symbol viewBox="0 0 8 8" id="vn"><path d="M0,7L0,1L8,1L8,7" fill="#ff0000"></path><path d="M4,5L2,6L4,1.5L6,6M4,5L1.5,3L6.5,3" fill="#f0f000"></path></symbol>
<symbol viewBox="0 0 8 8" id="vu"><path d="M0,7L0,1L8,1L8,7" fill="#000000"></path><path d="M4,3L0,1L8,1L8,3" fill="#ff0000"></path><path d="M0,7L4,5L8,5L8,7" fill="#008000"></path><path d="M0,6.5L0,6L3.5,4L0,2L0,1.5L4,3.5L8,3.5L8,4.5L4,4.5M1,5L0,4L1,3L2,4" fill="#f0f000"></path></symbol>
<symbol viewBox="0 0 8 8" id="ws"><path d="M0,7L0,1L8,1L8,7" fill="#ff0000"></path><path d="M0,4L0,1L4,1L4,4" fill="#0000c0"></path><path d="M1,3L0,2L3,2L2,3L1,1L2,1" fill="#ffffff"></path></symbol>
<symbol viewBox="0 0 8 8" id="ye"><path d="M0,3L0,1L8,1L8,3" fill="#ff0000"></path><path d="M0,5L0,3L8,3L8,5" fill="#ffffff"></path><path d="M0,7L0,5L8,5L8,7" fill="#000000"></path></symbol>
<symbol viewBox="0 0 8 8" id="za"><path d="M0,7L0,1L8,1L8,7" fill="#ffffff"></path><path d="M4,3L0,1L8,1L8,3" fill="#ff0000"></path><path d="M0,7L4,5L8,5L8,7" fill="#0000c0"></path><path d="M0,6.5L0,1.5L4,3.5L8,3.5L8,4.5L4,4.5" fill="#008000"></path><path d="M0,6L0,2L4,4" fill="#f0f000"></path><path d="M0,5.5L0,2.5L3,4" fill="#000000"></path></symbol>
<symbol viewBox="0 0 8 8" id="zm"><path d="M0,7L0,1L8,1L8,7" fill="#008000"></path><path d="M5,7L5,4L6,4L6,7" fill="#ff0000"></path><path d="M6,7L6,4L7,4L7,7" fill="#000000"></path><path d="M7,7L7,4L8,4L8,7M5,2L8,2L6.5,3" fill="#ff8000"></path></symbol>
<symbol viewBox="0 0 8 8" id="zw"><path d="M0,7L0,1L8,1L8,7" fill="#008000"></path><path d="M0,6L0,2L8,2L8,6" fill="#ff8000"></path><path d="M2,5L2,3L8,3L8,5" fill="#ff0000"></path><path d="M2,4.5L2,3.5L8,3.5L8,4.5" fill="#000000"></path><path d="M0,7L0,1L3,4M2,4L0,3L1,5" fill="#ffffff"></path></symbol>
</svg>
